# xmcd
#
# Track frame offsets:
#	150
#	20177
#	40087
#
# Disc length: 803 seconds
#
# Revision: 0
# Processed by: cddbd v1.5.1PL2 Copyright (c) Steve Scherf et al.
# Submitted via: audiograbber 1.83.01
#
DISCID=1f032103
DTITLE=Layla Kaylif - Shakespeare In Love
DYEAR=1900
DGENRE=Film
TTITLE0=Shakespeare In Love (radio mix) - Laughing Policeman
TTITLE1=Shakespeare In Love (Oscar's remix) - Ugly Duckling
TTITLE2=Shakespeare In Love (acoustic version) - Robin Hood
EXTD=
EXTT0=
EXTT1=
EXTT2=
PLAYORDER=
